<svg xmlns="http://www.w3.org/2000/svg" viewBox="0 0 64 64" width="64" height="64">
  <defs>
    <linearGradient id="plateGradient" x1="0%" y1="0%" x2="100%" y2="100%">
      <stop offset="0%" style="stop-color:#E97D4F;stop-opacity:1" />
      <stop offset="100%" style="stop-color:#D35C37;stop-opacity:1" />
    </linearGradient>
    <linearGradient id="foodGradient" x1="0%" y1="0%" x2="100%" y2="100%">
      <stop offset="0%" style="stop-color:#F4C430;stop-opacity:1" />
      <stop offset="100%" style="stop-color:#E6B800;stop-opacity:1" />
    </linearGradient>
  </defs>
  
  <!-- Background circle -->
  <circle cx="32" cy="32" r="30" fill="#2C3E50" stroke="#34495E" stroke-width="2"/>
  
  <!-- Plate -->
  <ellipse cx="32" cy="38" rx="22" ry="4" fill="url(#plateGradient)"/>
  <ellipse cx="32" cy="36" rx="20" ry="14" fill="url(#plateGradient)" stroke="#B85C3E" stroke-width="1"/>
  
  <!-- Food on plate -->
  <circle cx="28" cy="32" r="4" fill="url(#foodGradient)"/>
  <circle cx="36" cy="30" r="3.5" fill="url(#foodGradient)"/>
  <circle cx="32" cy="36" r="3" fill="url(#foodGradient)"/>
  
  <!-- Steam lines -->
  <path d="M 26 26 Q 26 22 25 20" stroke="#E8F4F8" stroke-width="1.5" fill="none" opacity="0.8"/>
  <path d="M 30 24 Q 30 20 29 18" stroke="#E8F4F8" stroke-width="1.5" fill="none" opacity="0.8"/>
  <path d="M 34 25 Q 34 21 33 19" stroke="#E8F4F8" stroke-width="1.5" fill="none" opacity="0.8"/>
  <path d="M 38 27 Q 38 23 37 21" stroke="#E8F4F8" stroke-width="1.5" fill="none" opacity="0.8"/>
  
  <!-- Chef hat accent -->
  <ellipse cx="32" cy="16" rx="8" ry="4" fill="#FFFFFF" opacity="0.9"/>
  <ellipse cx="32" cy="12" rx="6" ry="8" fill="#FFFFFF" opacity="0.9"/>
  <circle cx="32" cy="12" r="6" fill="#F8F9FA" stroke="#E9ECEF" stroke-width="1"/>
</svg>